<svg height="4142" width="720" xmlns="http://www.w3.org/2000/svg">
<rect height="4142" fill="#555" width="720"></rect>
<text fill="#7f7" font-family="Courier New" font-size="12" xml:space="preserve">
<tspan x="10" y="26">36 megabytes installed</tspan>
<tspan x="10" y="42"></tspan>
<tspan x="10" y="58">node_modules</tspan>
<tspan x="10" y="74">└─┬ snyk@1.29.0 </tspan>
<tspan x="10" y="90">  ├── abbrev@1.1.0 </tspan>
<tspan x="10" y="106">  ├── ansi-escapes@1.4.0 </tspan>
<tspan x="10" y="122">  ├─┬ chalk@1.1.3 </tspan>
<tspan x="10" y="138">  │ ├── ansi-styles@2.2.1 </tspan>
<tspan x="10" y="154">  │ ├── escape-string-regexp@1.0.5 </tspan>
<tspan x="10" y="170">  │ ├─┬ has-ansi@2.0.0 </tspan>
<tspan x="10" y="186">  │ │ └── ansi-regex@2.1.1 </tspan>
<tspan x="10" y="202">  │ ├── strip-ansi@3.0.1 </tspan>
<tspan x="10" y="218">  │ └── supports-color@2.0.0 </tspan>
<tspan x="10" y="234">  ├─┬ configstore@1.4.0 </tspan>
<tspan x="10" y="250">  │ ├── graceful-fs@4.1.11 </tspan>
<tspan x="10" y="266">  │ ├─┬ mkdirp@0.5.1 </tspan>
<tspan x="10" y="282">  │ │ └── minimist@0.0.8 </tspan>
<tspan x="10" y="298">  │ ├── object-assign@4.1.1 </tspan>
<tspan x="10" y="314">  │ ├── os-tmpdir@1.0.2 </tspan>
<tspan x="10" y="330">  │ ├─┬ osenv@0.1.4 </tspan>
<tspan x="10" y="346">  │ │ └── os-homedir@1.0.2 </tspan>
<tspan x="10" y="362">  │ ├── uuid@2.0.3 </tspan>
<tspan x="10" y="378">  │ ├─┬ write-file-atomic@1.3.3 </tspan>
<tspan x="10" y="394">  │ │ ├── imurmurhash@0.1.4 </tspan>
<tspan x="10" y="410">  │ │ └── slide@1.1.6 </tspan>
<tspan x="10" y="426">  │ └── xdg-basedir@2.0.0 </tspan>
<tspan x="10" y="442">  ├─┬ debug@2.6.4 </tspan>
<tspan x="10" y="458">  │ └── ms@0.7.3 </tspan>
<tspan x="10" y="474">  ├── es6-promise@3.3.1 </tspan>
<tspan x="10" y="490">  ├─┬ hasbin@1.2.3 </tspan>
<tspan x="10" y="506">  │ └── async@1.5.2 </tspan>
<tspan x="10" y="522">  ├─┬ inquirer@1.0.3 </tspan>
<tspan x="10" y="538">  │ ├─┬ cli-cursor@1.0.2 </tspan>
<tspan x="10" y="554">  │ │ └─┬ restore-cursor@1.0.1 </tspan>
<tspan x="10" y="570">  │ │   ├── exit-hook@1.1.1 </tspan>
<tspan x="10" y="586">  │ │   └── onetime@1.1.0 </tspan>
<tspan x="10" y="602">  │ ├── cli-width@2.1.0 </tspan>
<tspan x="10" y="618">  │ ├── figures@1.7.0 </tspan>
<tspan x="10" y="634">  │ ├── lodash@4.17.4 </tspan>
<tspan x="10" y="650">  │ ├── mute-stream@0.0.6 </tspan>
<tspan x="10" y="666">  │ ├─┬ pinkie-promise@2.0.1 </tspan>
<tspan x="10" y="682">  │ │ └── pinkie@2.0.4 </tspan>
<tspan x="10" y="698">  │ ├─┬ run-async@2.3.0 </tspan>
<tspan x="10" y="714">  │ │ └── is-promise@2.1.0 </tspan>
<tspan x="10" y="730">  │ ├── rx@4.1.0 </tspan>
<tspan x="10" y="746">  │ ├─┬ string-width@1.0.2 </tspan>
<tspan x="10" y="762">  │ │ ├── code-point-at@1.1.0 </tspan>
<tspan x="10" y="778">  │ │ └─┬ is-fullwidth-code-point@1.0.0 </tspan>
<tspan x="10" y="794">  │ │   └── number-is-nan@1.0.1 </tspan>
<tspan x="10" y="810">  │ └── through@2.3.8 </tspan>
<tspan x="10" y="826">  ├── open@0.0.5 </tspan>
<tspan x="10" y="842">  ├─┬ os-name@1.0.3 </tspan>
<tspan x="10" y="858">  │ ├─┬ osx-release@1.1.0 </tspan>
<tspan x="10" y="874">  │ │ └── minimist@1.2.0 </tspan>
<tspan x="10" y="890">  │ └── win-release@1.1.1 </tspan>
<tspan x="10" y="906">  ├─┬ request@2.81.0 </tspan>
<tspan x="10" y="922">  │ ├── aws-sign2@0.6.0 </tspan>
<tspan x="10" y="938">  │ ├── aws4@1.6.0 </tspan>
<tspan x="10" y="954">  │ ├── caseless@0.12.0 </tspan>
<tspan x="10" y="970">  │ ├─┬ combined-stream@1.0.5 </tspan>
<tspan x="10" y="986">  │ │ └── delayed-stream@1.0.0 </tspan>
<tspan x="10" y="1002">  │ ├── extend@3.0.0 </tspan>
<tspan x="10" y="1018">  │ ├── forever-agent@0.6.1 </tspan>
<tspan x="10" y="1034">  │ ├─┬ form-data@2.1.4 </tspan>
<tspan x="10" y="1050">  │ │ └── asynckit@0.4.0 </tspan>
<tspan x="10" y="1066">  │ ├─┬ har-validator@4.2.1 </tspan>
<tspan x="10" y="1082">  │ │ ├─┬ ajv@4.11.7 </tspan>
<tspan x="10" y="1098">  │ │ │ ├── co@4.6.0 </tspan>
<tspan x="10" y="1114">  │ │ │ └─┬ json-stable-stringify@1.0.1 </tspan>
<tspan x="10" y="1130">  │ │ │   └── jsonify@0.0.0 </tspan>
<tspan x="10" y="1146">  │ │ └── har-schema@1.0.5 </tspan>
<tspan x="10" y="1162">  │ ├─┬ hawk@3.1.3 </tspan>
<tspan x="10" y="1178">  │ │ ├── boom@2.10.1 </tspan>
<tspan x="10" y="1194">  │ │ ├── cryptiles@2.0.5 </tspan>
<tspan x="10" y="1210">  │ │ ├── hoek@2.16.3 </tspan>
<tspan x="10" y="1226">  │ │ └── sntp@1.0.9 </tspan>
<tspan x="10" y="1242">  │ ├─┬ http-signature@1.1.1 </tspan>
<tspan x="10" y="1258">  │ │ ├── assert-plus@0.2.0 </tspan>
<tspan x="10" y="1274">  │ │ ├─┬ jsprim@1.4.0 </tspan>
<tspan x="10" y="1290">  │ │ │ ├── assert-plus@1.0.0 </tspan>
<tspan x="10" y="1306">  │ │ │ ├── extsprintf@1.0.2 </tspan>
<tspan x="10" y="1322">  │ │ │ ├── json-schema@0.2.3 </tspan>
<tspan x="10" y="1338">  │ │ │ └── verror@1.3.6 </tspan>
<tspan x="10" y="1354">  │ │ └─┬ sshpk@1.13.0 </tspan>
<tspan x="10" y="1370">  │ │   ├── asn1@0.2.3 </tspan>
<tspan x="10" y="1386">  │ │   ├── assert-plus@1.0.0 </tspan>
<tspan x="10" y="1402">  │ │   ├── bcrypt-pbkdf@1.0.1 </tspan>
<tspan x="10" y="1418">  │ │   ├─┬ dashdash@1.14.1 </tspan>
<tspan x="10" y="1434">  │ │   │ └── assert-plus@1.0.0 </tspan>
<tspan x="10" y="1450">  │ │   ├── ecc-jsbn@0.1.1 </tspan>
<tspan x="10" y="1466">  │ │   ├─┬ getpass@0.1.6 </tspan>
<tspan x="10" y="1482">  │ │   │ └── assert-plus@1.0.0 </tspan>
<tspan x="10" y="1498">  │ │   ├── jodid25519@1.0.2 </tspan>
<tspan x="10" y="1514">  │ │   ├── jsbn@0.1.1 </tspan>
<tspan x="10" y="1530">  │ │   └── tweetnacl@0.14.5 </tspan>
<tspan x="10" y="1546">  │ ├── is-typedarray@1.0.0 </tspan>
<tspan x="10" y="1562">  │ ├── isstream@0.1.2 </tspan>
<tspan x="10" y="1578">  │ ├── json-stringify-safe@5.0.1 </tspan>
<tspan x="10" y="1594">  │ ├─┬ mime-types@2.1.15 </tspan>
<tspan x="10" y="1610">  │ │ └── mime-db@1.27.0 </tspan>
<tspan x="10" y="1626">  │ ├── oauth-sign@0.8.2 </tspan>
<tspan x="10" y="1642">  │ ├── performance-now@0.2.0 </tspan>
<tspan x="10" y="1658">  │ ├── qs@6.4.0 </tspan>
<tspan x="10" y="1674">  │ ├── safe-buffer@5.0.1 </tspan>
<tspan x="10" y="1690">  │ ├── stringstream@0.0.5 </tspan>
<tspan x="10" y="1706">  │ ├─┬ tough-cookie@2.3.2 </tspan>
<tspan x="10" y="1722">  │ │ └── punycode@1.4.1 </tspan>
<tspan x="10" y="1738">  │ └── tunnel-agent@0.6.0 </tspan>
<tspan x="10" y="1754">  ├── semver@5.3.0 </tspan>
<tspan x="10" y="1770">  ├─┬ snyk-config@1.0.1 </tspan>
<tspan x="10" y="1786">  │ ├─┬ nconf@0.7.2 </tspan>
<tspan x="10" y="1802">  │ │ ├── async@0.9.2 </tspan>
<tspan x="10" y="1818">  │ │ ├── ini@1.3.4 </tspan>
<tspan x="10" y="1834">  │ │ └─┬ yargs@3.15.0 </tspan>
<tspan x="10" y="1850">  │ │   ├── camelcase@1.2.1 </tspan>
<tspan x="10" y="1866">  │ │   ├─┬ cliui@2.1.0 </tspan>
<tspan x="10" y="1882">  │ │   │ ├─┬ center-align@0.1.3 </tspan>
<tspan x="10" y="1898">  │ │   │ │ ├─┬ align-text@0.1.4 </tspan>
<tspan x="10" y="1914">  │ │   │ │ │ ├─┬ kind-of@3.1.0 </tspan>
<tspan x="10" y="1930">  │ │   │ │ │ │ └── is-buffer@1.1.5 </tspan>
<tspan x="10" y="1946">  │ │   │ │ │ ├── longest@1.0.1 </tspan>
<tspan x="10" y="1962">  │ │   │ │ │ └── repeat-string@1.6.1 </tspan>
<tspan x="10" y="1978">  │ │   │ │ └── lazy-cache@1.0.4 </tspan>
<tspan x="10" y="1994">  │ │   │ ├── right-align@0.1.3 </tspan>
<tspan x="10" y="2010">  │ │   │ └── wordwrap@0.0.2 </tspan>
<tspan x="10" y="2026">  │ │   ├── decamelize@1.2.0 </tspan>
<tspan x="10" y="2042">  │ │   └── window-size@0.1.4 </tspan>
<tspan x="10" y="2058">  │ └── path-is-absolute@1.0.1 </tspan>
<tspan x="10" y="2074">  ├─┬ snyk-module@1.8.1 </tspan>
<tspan x="10" y="2090">  │ └── hosted-git-info@2.4.2 </tspan>
<tspan x="10" y="2106">  ├─┬ snyk-policy@1.7.1 </tspan>
<tspan x="10" y="2122">  │ ├─┬ js-yaml@3.8.3 </tspan>
<tspan x="10" y="2138">  │ │ ├─┬ argparse@1.0.9 </tspan>
<tspan x="10" y="2154">  │ │ │ └── sprintf-js@1.0.3 </tspan>
<tspan x="10" y="2170">  │ │ └── esprima@3.1.3 </tspan>
<tspan x="10" y="2186">  │ └── lodash.clonedeep@4.5.0 </tspan>
<tspan x="10" y="2202">  ├─┬ snyk-recursive-readdir@2.0.0 </tspan>
<tspan x="10" y="2218">  │ └─┬ minimatch@3.0.2 </tspan>
<tspan x="10" y="2234">  │   └─┬ brace-expansion@1.1.7 </tspan>
<tspan x="10" y="2250">  │     ├── balanced-match@0.4.2 </tspan>
<tspan x="10" y="2266">  │     └── concat-map@0.0.1 </tspan>
<tspan x="10" y="2282">  ├── snyk-resolve@1.0.0 </tspan>
<tspan x="10" y="2298">  ├─┬ snyk-resolve-deps@1.7.0 </tspan>
<tspan x="10" y="2314">  │ ├── ansicolors@0.3.2 </tspan>
<tspan x="10" y="2330">  │ ├─┬ clite@0.3.0 </tspan>
<tspan x="10" y="2346">  │ │ ├── lodash.defaults@4.2.0 </tspan>
<tspan x="10" y="2362">  │ │ ├── lodash.defaultsdeep@4.6.0 </tspan>
<tspan x="10" y="2378">  │ │ ├── lodash.mergewith@4.6.0 </tspan>
<tspan x="10" y="2394">  │ │ ├─┬ update-notifier@0.6.3 </tspan>
<tspan x="10" y="2410">  │ │ │ ├─┬ boxen@0.3.1 </tspan>
<tspan x="10" y="2426">  │ │ │ │ ├── filled-array@1.1.0 </tspan>
<tspan x="10" y="2442">  │ │ │ │ ├── repeating@2.0.1 </tspan>
<tspan x="10" y="2458">  │ │ │ │ └── widest-line@1.0.0 </tspan>
<tspan x="10" y="2474">  │ │ │ ├─┬ configstore@2.1.0 </tspan>
<tspan x="10" y="2490">  │ │ │ │ ├─┬ dot-prop@3.0.0 </tspan>
<tspan x="10" y="2506">  │ │ │ │ │ └── is-obj@1.0.1 </tspan>
<tspan x="10" y="2522">  │ │ │ │ └── uuid@2.0.3 </tspan>
<tspan x="10" y="2538">  │ │ │ └─┬ latest-version@2.0.0 </tspan>
<tspan x="10" y="2554">  │ │ │   └─┬ package-json@2.4.0 </tspan>
<tspan x="10" y="2570">  │ │ │     ├─┬ got@5.7.1 </tspan>
<tspan x="10" y="2586">  │ │ │     │ ├─┬ create-error-class@3.0.2 </tspan>
<tspan x="10" y="2602">  │ │ │     │ │ └── capture-stack-trace@1.0.0 </tspan>
<tspan x="10" y="2618">  │ │ │     │ ├── duplexer2@0.1.4 </tspan>
<tspan x="10" y="2634">  │ │ │     │ ├── is-retry-allowed@1.1.0 </tspan>
<tspan x="10" y="2650">  │ │ │     │ ├── node-status-codes@1.0.0 </tspan>
<tspan x="10" y="2666">  │ │ │     │ ├─┬ parse-json@2.2.0 </tspan>
<tspan x="10" y="2682">  │ │ │     │ │ └─┬ error-ex@1.3.1 </tspan>
<tspan x="10" y="2698">  │ │ │     │ │   └── is-arrayish@0.2.1 </tspan>
<tspan x="10" y="2714">  │ │ │     │ ├── timed-out@3.1.3 </tspan>
<tspan x="10" y="2730">  │ │ │     │ ├── unzip-response@1.0.2 </tspan>
<tspan x="10" y="2746">  │ │ │     │ └── url-parse-lax@1.0.0 </tspan>
<tspan x="10" y="2762">  │ │ │     └── registry-auth-token@3.2.0 </tspan>
<tspan x="10" y="2778">  │ │ └─┬ yargs@4.8.1 </tspan>
<tspan x="10" y="2794">  │ │   ├─┬ cliui@3.2.0 </tspan>
<tspan x="10" y="2810">  │ │   │ └── wrap-ansi@2.1.0 </tspan>
<tspan x="10" y="2826">  │ │   ├── get-caller-file@1.0.2 </tspan>
<tspan x="10" y="2842">  │ │   ├── lodash.assign@4.2.0 </tspan>
<tspan x="10" y="2858">  │ │   ├─┬ os-locale@1.4.0 </tspan>
<tspan x="10" y="2874">  │ │   │ └─┬ lcid@1.0.0 </tspan>
<tspan x="10" y="2890">  │ │   │   └── invert-kv@1.0.0 </tspan>
<tspan x="10" y="2906">  │ │   ├─┬ read-pkg-up@1.0.1 </tspan>
<tspan x="10" y="2922">  │ │   │ ├─┬ find-up@1.1.2 </tspan>
<tspan x="10" y="2938">  │ │   │ │ └── path-exists@2.1.0 </tspan>
<tspan x="10" y="2954">  │ │   │ └─┬ read-pkg@1.1.0 </tspan>
<tspan x="10" y="2970">  │ │   │   ├─┬ load-json-file@1.1.0 </tspan>
<tspan x="10" y="2986">  │ │   │   │ ├── pify@2.3.0 </tspan>
<tspan x="10" y="3002">  │ │   │   │ └─┬ strip-bom@2.0.0 </tspan>
<tspan x="10" y="3018">  │ │   │   │   └── is-utf8@0.2.1 </tspan>
<tspan x="10" y="3034">  │ │   │   ├─┬ normalize-package-data@2.3.8 </tspan>
<tspan x="10" y="3050">  │ │   │   │ ├─┬ is-builtin-module@1.0.0 </tspan>
<tspan x="10" y="3066">  │ │   │   │ │ └── builtin-modules@1.1.1 </tspan>
<tspan x="10" y="3082">  │ │   │   │ └─┬ validate-npm-package-license@3.0.1 </tspan>
<tspan x="10" y="3098">  │ │   │   │   ├─┬ spdx-correct@1.0.2 </tspan>
<tspan x="10" y="3114">  │ │   │   │   │ └── spdx-license-ids@1.2.2 </tspan>
<tspan x="10" y="3130">  │ │   │   │   └── spdx-expression-parse@1.0.4 </tspan>
<tspan x="10" y="3146">  │ │   │   └── path-type@1.1.0 </tspan>
<tspan x="10" y="3162">  │ │   ├── require-directory@2.1.1 </tspan>
<tspan x="10" y="3178">  │ │   ├── require-main-filename@1.0.1 </tspan>
<tspan x="10" y="3194">  │ │   ├── set-blocking@2.0.0 </tspan>
<tspan x="10" y="3210">  │ │   ├── which-module@1.0.0 </tspan>
<tspan x="10" y="3226">  │ │   ├── window-size@0.2.0 </tspan>
<tspan x="10" y="3242">  │ │   ├── y18n@3.2.1 </tspan>
<tspan x="10" y="3258">  │ │   └─┬ yargs-parser@2.4.1 </tspan>
<tspan x="10" y="3274">  │ │     └── camelcase@3.0.0 </tspan>
<tspan x="10" y="3290">  │ ├─┬ lru-cache@4.0.2 </tspan>
<tspan x="10" y="3306">  │ │ ├── pseudomap@1.0.2 </tspan>
<tspan x="10" y="3322">  │ │ └── yallist@2.1.2 </tspan>
<tspan x="10" y="3338">  │ └── minimist@1.2.0 </tspan>
<tspan x="10" y="3354">  ├─┬ snyk-tree@1.0.0 </tspan>
<tspan x="10" y="3370">  │ └── archy@1.0.0 </tspan>
<tspan x="10" y="3386">  ├── snyk-try-require@1.2.0 </tspan>
<tspan x="10" y="3402">  ├─┬ tempfile@1.1.1 </tspan>
<tspan x="10" y="3418">  │ └── uuid@2.0.3 </tspan>
<tspan x="10" y="3434">  ├─┬ then-fs@2.0.0 </tspan>
<tspan x="10" y="3450">  │ └─┬ promise@7.1.1 </tspan>
<tspan x="10" y="3466">  │   └── asap@2.0.5 </tspan>
<tspan x="10" y="3482">  ├── undefsafe@0.0.3 </tspan>
<tspan x="10" y="3498">  ├─┬ update-notifier@0.5.0 </tspan>
<tspan x="10" y="3514">  │ ├── is-npm@1.0.0 </tspan>
<tspan x="10" y="3530">  │ ├─┬ latest-version@1.0.1 </tspan>
<tspan x="10" y="3546">  │ │ └─┬ package-json@1.2.0 </tspan>
<tspan x="10" y="3562">  │ │   ├─┬ got@3.3.1 </tspan>
<tspan x="10" y="3578">  │ │   │ ├─┬ duplexify@3.5.0 </tspan>
<tspan x="10" y="3594">  │ │   │ │ ├─┬ end-of-stream@1.0.0 </tspan>
<tspan x="10" y="3610">  │ │   │ │ │ └─┬ once@1.3.3 </tspan>
<tspan x="10" y="3626">  │ │   │ │ │   └── wrappy@1.0.2 </tspan>
<tspan x="10" y="3642">  │ │   │ │ ├── inherits@2.0.3 </tspan>
<tspan x="10" y="3658">  │ │   │ │ ├─┬ readable-stream@2.2.9 </tspan>
<tspan x="10" y="3674">  │ │   │ │ │ ├── buffer-shims@1.0.0 </tspan>
<tspan x="10" y="3690">  │ │   │ │ │ ├── core-util-is@1.0.2 </tspan>
<tspan x="10" y="3706">  │ │   │ │ │ ├── isarray@1.0.0 </tspan>
<tspan x="10" y="3722">  │ │   │ │ │ ├── process-nextick-args@1.0.7 </tspan>
<tspan x="10" y="3738">  │ │   │ │ │ ├── string_decoder@1.0.0 </tspan>
<tspan x="10" y="3754">  │ │   │ │ │ └── util-deprecate@1.0.2 </tspan>
<tspan x="10" y="3770">  │ │   │ │ └── stream-shift@1.0.0 </tspan>
<tspan x="10" y="3786">  │ │   │ ├── infinity-agent@2.0.3 </tspan>
<tspan x="10" y="3802">  │ │   │ ├── is-redirect@1.0.0 </tspan>
<tspan x="10" y="3818">  │ │   │ ├── is-stream@1.1.0 </tspan>
<tspan x="10" y="3834">  │ │   │ ├── lowercase-keys@1.0.0 </tspan>
<tspan x="10" y="3850">  │ │   │ ├── nested-error-stacks@1.0.2 </tspan>
<tspan x="10" y="3866">  │ │   │ ├── object-assign@3.0.0 </tspan>
<tspan x="10" y="3882">  │ │   │ ├── prepend-http@1.0.4 </tspan>
<tspan x="10" y="3898">  │ │   │ ├── read-all-stream@3.1.0 </tspan>
<tspan x="10" y="3914">  │ │   │ └── timed-out@2.0.0 </tspan>
<tspan x="10" y="3930">  │ │   └─┬ registry-url@3.1.0 </tspan>
<tspan x="10" y="3946">  │ │     └─┬ rc@1.2.1 </tspan>
<tspan x="10" y="3962">  │ │       ├── deep-extend@0.4.1 </tspan>
<tspan x="10" y="3978">  │ │       ├── minimist@1.2.0 </tspan>
<tspan x="10" y="3994">  │ │       └── strip-json-comments@2.0.1 </tspan>
<tspan x="10" y="4010">  │ ├─┬ repeating@1.1.3 </tspan>
<tspan x="10" y="4026">  │ │ └── is-finite@1.0.2 </tspan>
<tspan x="10" y="4042">  │ ├── semver-diff@2.1.0 </tspan>
<tspan x="10" y="4058">  │ └── string-length@1.0.1 </tspan>
<tspan x="10" y="4074">  ├─┬ url@0.11.0 </tspan>
<tspan x="10" y="4090">  │ ├── punycode@1.3.2 </tspan>
<tspan x="10" y="4106">  │ └── querystring@0.2.0 </tspan>
<tspan x="10" y="4122">  └── uuid@3.0.1</tspan>
</text>
</svg>
